
<svg width="50" height="44" viewBox="0 0 50 44" fill="none" xmlns="http://www.w3.org/2000/svg">
<path d="M3.125 40.8156C3.125 42.5442 4.52148 43.9406 6.25 43.9406H21.875V28.3156H3.125V40.8156ZM28.125 43.9406H43.75C45.4785 43.9406 46.875 42.5442 46.875 40.8156V28.3156H28.125V43.9406ZM46.875 12.6906H42.7637C43.3691 11.509 43.75 10.2004 43.75 8.78439C43.75 4.04807 39.8926 0.190643 35.1562 0.190643C31.0938 0.190643 28.4668 2.27072 25.0977 6.86057C21.7285 2.27072 19.1016 0.190643 15.0391 0.190643C10.3027 0.190643 6.44531 4.04807 6.44531 8.78439C6.44531 10.2004 6.81641 11.509 7.43164 12.6906H3.125C1.39648 12.6906 0 14.0871 0 15.8156V23.6281C0 24.4875 0.703125 25.1906 1.5625 25.1906H48.4375C49.2969 25.1906 50 24.4875 50 23.6281V15.8156C50 14.0871 48.6035 12.6906 46.875 12.6906ZM15.0293 12.6906C12.8711 12.6906 11.123 10.9426 11.123 8.78439C11.123 6.62619 12.8711 4.87814 15.0293 4.87814C16.9727 4.87814 18.4082 5.20041 23.4375 12.6906H15.0293ZM35.1562 12.6906H26.748C31.7676 5.21994 33.1641 4.87814 35.1562 4.87814C37.3145 4.87814 39.0625 6.62619 39.0625 8.78439C39.0625 10.9426 37.3145 12.6906 35.1562 12.6906Z" fill="black"/>
</svg>
